<svg id="Layer_1" data-name="Layer 1" xmlns="http://www.w3.org/2000/svg" viewBox="0 0 122.88 122.88"><defs><style>.cls-1{fill:#fff;}.cls-2{fill:#d92d27;}</style></defs><title>no-swimming</title><path class="cls-1" d="M21.2,32.93,90,101.68A49.29,49.29,0,0,1,12.13,61.44h0A49.12,49.12,0,0,1,21.2,32.93ZM98.92,93.5,29.39,24a49.25,49.25,0,0,1,66.92,2.61A49.23,49.23,0,0,1,98.92,93.5Z"/><path class="cls-1" d="M24,29.38,93.49,98.92A49.31,49.31,0,0,1,24,29.38ZM101.68,90,32.92,21.2A49.24,49.24,0,0,1,96.3,26.57a49,49,0,0,1,14.45,34.87h0A49.12,49.12,0,0,1,101.68,90Z"/><path d="M25.63,76.11c4.15-1.6,7.64-.55,12.49.9,1.26.38,2.64.8,3.88,1.12s2.81-.34,4.59-1a19.18,19.18,0,0,1,7.33-1.6,12.46,12.46,0,0,1,5.64,2,9.34,9.34,0,0,0,2.89,1.25,6.94,6.94,0,0,0,2.87-1.23,11.91,11.91,0,0,1,5.92-2.15,14.54,14.54,0,0,1,6.64,1.7,10.89,10.89,0,0,0,3.23,1.09c.9.07,2.1-.7,3.26-1.44a12.23,12.23,0,0,1,5.31-2.29c2.48-.27,5.2.9,7.51,1.89l.06,0v7.09c-.5-.15-1-.35-1.54-.56l-1.13-.48C93,81.74,91.14,80.94,90.4,81a8.15,8.15,0,0,0-2.49,1.28L86.85,83a10.05,10.05,0,0,1-6.23,1.81,16.1,16.1,0,0,1-5.43-1.66l-.14-.06A9.08,9.08,0,0,0,71.45,82a6.85,6.85,0,0,0-2.56,1.11l-.22.13c-1.89,1.12-3.79,2.24-6.45,2.14a13,13,0,0,1-5.81-2.06l-.23-.12a8.09,8.09,0,0,0-2.42-1.06,13.44,13.44,0,0,0-4.62,1.11l-.27.1c-2.76,1-5.4,2-8.52,1.17-1.68-.43-3-.82-4.12-1.17h0c-4.23-1.27-7-2.09-10.29.08a3.16,3.16,0,0,0-.27.18V76.11ZM76.87,47.45l8.25-1.26c5.13-.76,3.59-10-3-8.53L63.42,40.75c-2,.33-5.51.59-7,1.94a3.38,3.38,0,0,0-1,3.2c.28,1.91,1.87,4.3,2.83,6l2.31,4.16c1.69,3,2.59,3.31-.53,5L38.72,72.47l1.55.46,4.67.07,1.65-.59a19.18,19.18,0,0,1,7.33-1.6,12.45,12.45,0,0,1,5.64,2l.81.43,4.11.07c.28-.15.56-.32.83-.48a12,12,0,0,1,5.93-2.14,14.37,14.37,0,0,1,6.63,1.7,10.94,10.94,0,0,0,3.23,1.08,2.19,2.19,0,0,0,.7-.08L71,54.11c-.92-1.63-2.58-3.7-2.34-5,.08-.42.64-.59,1.32-.69,2.31-.33,4.61-.67,6.92-1Zm8.91,4.29a8.2,8.2,0,1,1-8.2,8.2,8.2,8.2,0,0,1,8.2-8.2Z"/><path class="cls-2" d="M61.44,122.88A61.31,61.31,0,1,0,38,118.22a61.29,61.29,0,0,0,23.49,4.66ZM101.68,90,32.93,21.2a49.44,49.44,0,0,1,47.38-5.34A49.53,49.53,0,0,1,107,42.58a49,49,0,0,1,3.73,18.86h0A48.93,48.93,0,0,1,101.68,90ZM24,29.38,93.5,98.92A49.32,49.32,0,0,1,24,29.38Z"/></svg>