<svg width="20" height="20" viewBox="0 0 20 20" fill="none" xmlns="http://www.w3.org/2000/svg">
<path d="M20 9.44442C20 8.62393 19.5503 7.91525 18.8889 7.53053V2.22254C18.8889 1.91872 18.6465 1.11108 17.7778 1.11108C17.5306 1.11108 17.2851 1.19372 17.084 1.35483L14.1316 3.71699C12.6486 4.9024 10.7868 5.55553 8.88889 5.55553H2.22222C0.994792 5.55553 0 6.55032 0 7.77775V11.1111C0 12.3385 0.994792 13.3333 2.22222 13.3333H3.39236C3.3441 13.6972 3.31667 14.0673 3.31667 14.4444C3.31667 15.8253 3.63819 17.1302 4.20417 18.2965C4.38438 18.6677 4.77778 18.8889 5.19028 18.8889H7.76944C8.67396 18.8889 9.21701 17.8527 8.66875 17.1333C8.09931 16.3861 7.76076 15.4541 7.76076 14.4444C7.76076 14.0587 7.81701 13.6878 7.91389 13.3333H8.88889C10.7868 13.3333 12.6486 13.9864 14.1313 15.1718L17.0837 17.534C17.2806 17.6916 17.5252 17.7775 17.7774 17.7778C18.6427 17.7778 18.8885 16.9868 18.8885 16.6666V11.3587C19.5503 10.9736 20 10.2649 20 9.44442ZM16.6667 14.3548L15.5191 13.4368C13.6441 11.9368 11.2889 11.1111 8.88889 11.1111V7.77775C11.2889 7.77775 13.6441 6.95206 15.5191 5.45206L16.6667 4.534V14.3548Z" fill="#3B3B3B"/>
</svg>
